<?xml version="1.0" encoding="UTF-8"?>
<!DOCTYPE svg PUBLIC "-//W3C//DTD SVG 1.1//EN" "http://www.w3.org/Graphics/SVG/1.1/DTD/svg11.dtd">
<svg version="1.2" width="279.4mm" height="215.9mm" viewBox="0 0 27940 21590" preserveAspectRatio="xMidYMid" fill-rule="evenodd" stroke-width="28.222" stroke-linejoin="round" xmlns="http://www.w3.org/2000/svg" xmlns:ooo="http://xml.openoffice.org/svg/export" xmlns:xlink="http://www.w3.org/1999/xlink" xmlns:presentation="http://sun.com/xmlns/staroffice/presentation" xmlns:smil="http://www.w3.org/2001/SMIL20/" xmlns:anim="urn:oasis:names:tc:opendocument:xmlns:animation:1.0" xml:space="preserve">
 <defs class="ClipPathGroup">
  <clipPath id="presentation_clip_path" clipPathUnits="userSpaceOnUse">
   <rect x="0" y="0" width="27940" height="21590"/>
  </clipPath>
  <clipPath id="presentation_clip_path_shrink" clipPathUnits="userSpaceOnUse">
   <rect x="27" y="21" width="27885" height="21547"/>
  </clipPath>
 </defs>
 <defs class="TextShapeIndex">
  <g ooo:slide="id1" ooo:id-list="id3 id4 id5 id6 id7 id8"/>
 </defs>
 <defs class="EmbeddedBulletChars">
  <g id="bullet-char-template-57356" transform="scale(0.00048828125,-0.00048828125)">
   <path d="M 580,1141 L 1163,571 580,0 -4,571 580,1141 Z"/>
  </g>
  <g id="bullet-char-template-57354" transform="scale(0.00048828125,-0.00048828125)">
   <path d="M 8,1128 L 1137,1128 1137,0 8,0 8,1128 Z"/>
  </g>
  <g id="bullet-char-template-10146" transform="scale(0.00048828125,-0.00048828125)">
   <path d="M 174,0 L 602,739 174,1481 1456,739 174,0 Z M 1358,739 L 309,1346 659,739 1358,739 Z"/>
  </g>
  <g id="bullet-char-template-10132" transform="scale(0.00048828125,-0.00048828125)">
   <path d="M 2015,739 L 1276,0 717,0 1260,543 174,543 174,936 1260,936 717,1481 1274,1481 2015,739 Z"/>
  </g>
  <g id="bullet-char-template-10007" transform="scale(0.00048828125,-0.00048828125)">
   <path d="M 0,-2 C -7,14 -16,27 -25,37 L 356,567 C 262,823 215,952 215,954 215,979 228,992 255,992 264,992 276,990 289,987 310,991 331,999 354,1012 L 381,999 492,748 772,1049 836,1024 860,1049 C 881,1039 901,1025 922,1006 886,937 835,863 770,784 769,783 710,716 594,584 L 774,223 C 774,196 753,168 711,139 L 727,119 C 717,90 699,76 672,76 641,76 570,178 457,381 L 164,-76 C 142,-110 111,-127 72,-127 30,-127 9,-110 8,-76 1,-67 -2,-52 -2,-32 -2,-23 -1,-13 0,-2 Z"/>
  </g>
  <g id="bullet-char-template-10004" transform="scale(0.00048828125,-0.00048828125)">
   <path d="M 285,-33 C 182,-33 111,30 74,156 52,228 41,333 41,471 41,549 55,616 82,672 116,743 169,778 240,778 293,778 328,747 346,684 L 369,508 C 377,444 397,411 428,410 L 1163,1116 C 1174,1127 1196,1133 1229,1133 1271,1133 1292,1118 1292,1087 L 1292,965 C 1292,929 1282,901 1262,881 L 442,47 C 390,-6 338,-33 285,-33 Z"/>
  </g>
  <g id="bullet-char-template-9679" transform="scale(0.00048828125,-0.00048828125)">
   <path d="M 813,0 C 632,0 489,54 383,161 276,268 223,411 223,592 223,773 276,916 383,1023 489,1130 632,1184 813,1184 992,1184 1136,1130 1245,1023 1353,916 1407,772 1407,592 1407,412 1353,268 1245,161 1136,54 992,0 813,0 Z"/>
  </g>
  <g id="bullet-char-template-8226" transform="scale(0.00048828125,-0.00048828125)">
   <path d="M 346,457 C 273,457 209,483 155,535 101,586 74,649 74,723 74,796 101,859 155,911 209,963 273,989 346,989 419,989 480,963 531,910 582,859 608,796 608,723 608,648 583,586 532,535 482,483 420,457 346,457 Z"/>
  </g>
  <g id="bullet-char-template-8211" transform="scale(0.00048828125,-0.00048828125)">
   <path d="M -4,459 L 1135,459 1135,606 -4,606 -4,459 Z"/>
  </g>
  <g id="bullet-char-template-61548" transform="scale(0.00048828125,-0.00048828125)">
   <path d="M 173,740 C 173,903 231,1043 346,1159 462,1274 601,1332 765,1332 928,1332 1067,1274 1183,1159 1299,1043 1357,903 1357,740 1357,577 1299,437 1183,322 1067,206 928,148 765,148 601,148 462,206 346,322 231,437 173,577 173,740 Z"/>
  </g>
 </defs>
 <g>
  <g id="id2" class="Master_Slide">
   <g id="bg-id2" class="Background"/>
   <g id="bo-id2" class="BackgroundObjects"/>
  </g>
 </g>
 <g class="SlideGroup">
  <g>
   <g id="container-id1">
    <g id="id1" class="Slide" clip-path="url(#presentation_clip_path)">
     <g class="Page">
      <g class="com.sun.star.drawing.OpenFreeHandShape">
       <g id="id3">
        <rect class="BoundingBox" stroke="none" fill="none" x="2513" y="4366" width="3859" height="7830"/>
        <path fill="none" stroke="rgb(52,101,164)" d="M 5831,4649 C 5535,4519 5229,4374 4906,4367 4503,4359 4105,4469 3724,4598 3300,4741 2992,5084 2774,5446 2565,5792 2559,6222 2543,6627 2529,6996 2526,7363 2517,7732 2507,8135 2522,8545 2620,8939 2690,9222 2776,9504 2851,9787 2934,10098 3073,10393 3211,10686 3354,10989 3489,11289 3750,11534 4001,11770 4184,12200 4598,12176 4905,12159 5236,12255 5522,12125 5804,11996 6092,12047 6370,11945 L 6370,11945"/>
       </g>
      </g>
      <g class="com.sun.star.drawing.OpenFreeHandShape">
       <g id="id4">
        <rect class="BoundingBox" stroke="none" fill="none" x="11111" y="4016" width="3538" height="8368"/>
        <path fill="none" stroke="rgb(52,101,164)" d="M 11139,12382 C 11097,12040 11109,11695 11139,11354 11179,10904 11274,10464 11345,10018 11410,9609 11470,9195 11422,8785 11374,8376 11400,7962 11396,7552 11391,7072 11404,6593 11370,6114 11344,5737 11342,5357 11396,4984 11445,4649 11458,4239 11858,4085 12307,3911 12749,4109 13169,4239 13621,4378 14002,4713 14247,5112 14416,5387 14607,5671 14633,6011 14658,6346 14656,6689 14556,7013 14416,7466 14048,7804 13657,8040 13298,8257 12878,8285 12475,8323 12152,8354 11394,8486 11525,8195 11689,7831 12291,8287 12603,8477 12996,8716 13230,9149 13425,9582 13625,10027 13846,10479 13862,10969 13874,11325 13991,11666 14016,12022 L 14016,12305 14016,12305"/>
       </g>
      </g>
      <g class="com.sun.star.drawing.OpenFreeHandShape">
       <g id="id5">
        <rect class="BoundingBox" stroke="none" fill="none" x="15317" y="4546" width="3950" height="7637"/>
        <path fill="none" stroke="rgb(52,101,164)" d="M 15455,4547 C 15353,4833 15315,5139 15326,5446 15344,5924 15326,6404 15326,6884 15326,7217 15309,7552 15326,7886 15344,8238 15386,8590 15429,8940 15475,9308 15558,9671 15609,10044 15663,10439 15794,10774 15891,11149 15976,11478 16131,11830 16431,12022 16725,12210 17096,12166 17433,12176 17787,12187 18178,12198 18486,12022 18839,11820 19158,11482 19231,11046 19296,10655 19245,10257 19257,9864 19268,9510 19188,9163 19154,8811 19119,8450 19098,8089 19051,7732 19003,7372 19059,7010 19000,6653 18937,6278 18947,5898 18897,5523 L 18897,5240 18897,4932 18846,4701"/>
       </g>
      </g>
      <g class="com.sun.star.drawing.OpenFreeHandShape">
       <g id="id6">
        <rect class="BoundingBox" stroke="none" fill="none" x="6549" y="4289" width="3666" height="7452"/>
        <path fill="none" stroke="rgb(52,101,164)" d="M 6807,4444 C 6713,4816 6861,5179 6884,5548 6904,5876 7032,6193 7012,6525 6992,6843 7183,7181 7064,7475 6896,7893 7398,8033 7655,7937 7946,7828 8270,7860 8579,7835 8882,7811 9282,7933 9478,7655 9769,7242 9848,6713 9915,6216 9965,5845 9902,5455 9735,5112 9561,4756 9410,3428 9915,5163 10059,5659 9972,6190 9966,6704 9961,7104 10038,7591 9761,7886 9430,8239 8891,7956 8451,7989 8067,8018 7681,8034 7295,8040 7015,8045 6420,7918 6576,8477 6713,8967 6798,9471 6910,9967 7013,10422 7070,10889 7115,11354 7244,12677 6930,8627 7064,9556 7120,9946 7111,8765 7064,8374 7018,7992 7292,7679 7757,7706 8151,7728 8480,7767 8862,7732 9177,7703 9491,7732 9812,7783 10410,7878 10178,8667 10121,9068 10058,9506 9960,9940 9889,10378 L 9812,11097 9761,11534 9761,11739"/>
       </g>
      </g>
      <g class="com.sun.star.drawing.OpenFreeHandShape">
       <g id="id7">
        <rect class="BoundingBox" stroke="none" fill="none" x="19764" y="4217" width="4538" height="7601"/>
        <path fill="none" stroke="rgb(52,101,164)" d="M 20344,11816 C 20273,11407 20319,10982 20190,10583 20028,10083 20155,9548 20036,9042 19911,8509 19807,7968 19779,7424 19753,6910 19798,6394 19779,5882 19765,5502 19917,5118 19830,4752 19557,3597 20221,4649 20344,4829 20698,5346 20920,5937 21243,6473 21433,6788 21501,7218 21808,7424 22454,7858 22521,6642 22759,6242 22983,5867 23195,5494 23401,5112 23937,4120 23954,6168 23966,6216 24092,6698 23929,7213 24018,7706 24081,8053 24119,8406 24120,8759 24121,9054 24146,9337 24146,9633 24147,10191 24251,10746 24300,11303 L 24300,11405"/>
       </g>
      </g>
      <g class="com.sun.star.drawing.OpenFreeHandShape">
       <g id="id8">
        <rect class="BoundingBox" stroke="none" fill="none" x="2619" y="12140" width="21606" height="1286"/>
        <path fill="none" stroke="rgb(52,101,164)" d="M 24223,12510 C 23496,12172 22531,11974 21757,12330 21276,12551 20737,12601 20216,12613 19914,12620 19626,12645 19342,12715 18164,13008 17072,12390 15875,12869 15042,13202 14112,12962 13229,12998 12560,13025 11893,13023 11225,13049 10714,13069 10213,13290 9710,13203 8748,13036 7920,13511 6987,13409 6695,13377 6406,13341 6113,13306 5640,13249 5172,13168 4700,13126 4159,13078 3603,12974 3133,12690 L 2774,12510 2620,12407"/>
       </g>
      </g>
     </g>
    </g>
   </g>
  </g>
 </g>
</svg>