<?xml version="1.0" encoding="UTF-8"?>
<!DOCTYPE svg PUBLIC "-//W3C//DTD SVG 1.1//EN" "http://www.w3.org/Graphics/SVG/1.1/DTD/svg11.dtd">
<svg version="1.2" width="279.4mm" height="215.9mm" viewBox="0 0 27940 21590" preserveAspectRatio="xMidYMid" fill-rule="evenodd" stroke-width="28.222" stroke-linejoin="round" xmlns="http://www.w3.org/2000/svg" xmlns:ooo="http://xml.openoffice.org/svg/export" xmlns:xlink="http://www.w3.org/1999/xlink" xmlns:presentation="http://sun.com/xmlns/staroffice/presentation" xmlns:smil="http://www.w3.org/2001/SMIL20/" xmlns:anim="urn:oasis:names:tc:opendocument:xmlns:animation:1.0" xml:space="preserve">
 <defs class="ClipPathGroup">
  <clipPath id="presentation_clip_path" clipPathUnits="userSpaceOnUse">
   <rect x="0" y="0" width="27940" height="21590"/>
  </clipPath>
  <clipPath id="presentation_clip_path_shrink" clipPathUnits="userSpaceOnUse">
   <rect x="27" y="21" width="27885" height="21547"/>
  </clipPath>
 </defs>
 <defs class="TextShapeIndex">
  <g ooo:slide="id1" ooo:id-list="id3"/>
 </defs>
 <defs class="EmbeddedBulletChars">
  <g id="bullet-char-template-57356" transform="scale(0.00048828125,-0.00048828125)">
   <path d="M 580,1141 L 1163,571 580,0 -4,571 580,1141 Z"/>
  </g>
  <g id="bullet-char-template-57354" transform="scale(0.00048828125,-0.00048828125)">
   <path d="M 8,1128 L 1137,1128 1137,0 8,0 8,1128 Z"/>
  </g>
  <g id="bullet-char-template-10146" transform="scale(0.00048828125,-0.00048828125)">
   <path d="M 174,0 L 602,739 174,1481 1456,739 174,0 Z M 1358,739 L 309,1346 659,739 1358,739 Z"/>
  </g>
  <g id="bullet-char-template-10132" transform="scale(0.00048828125,-0.00048828125)">
   <path d="M 2015,739 L 1276,0 717,0 1260,543 174,543 174,936 1260,936 717,1481 1274,1481 2015,739 Z"/>
  </g>
  <g id="bullet-char-template-10007" transform="scale(0.00048828125,-0.00048828125)">
   <path d="M 0,-2 C -7,14 -16,27 -25,37 L 356,567 C 262,823 215,952 215,954 215,979 228,992 255,992 264,992 276,990 289,987 310,991 331,999 354,1012 L 381,999 492,748 772,1049 836,1024 860,1049 C 881,1039 901,1025 922,1006 886,937 835,863 770,784 769,783 710,716 594,584 L 774,223 C 774,196 753,168 711,139 L 727,119 C 717,90 699,76 672,76 641,76 570,178 457,381 L 164,-76 C 142,-110 111,-127 72,-127 30,-127 9,-110 8,-76 1,-67 -2,-52 -2,-32 -2,-23 -1,-13 0,-2 Z"/>
  </g>
  <g id="bullet-char-template-10004" transform="scale(0.00048828125,-0.00048828125)">
   <path d="M 285,-33 C 182,-33 111,30 74,156 52,228 41,333 41,471 41,549 55,616 82,672 116,743 169,778 240,778 293,778 328,747 346,684 L 369,508 C 377,444 397,411 428,410 L 1163,1116 C 1174,1127 1196,1133 1229,1133 1271,1133 1292,1118 1292,1087 L 1292,965 C 1292,929 1282,901 1262,881 L 442,47 C 390,-6 338,-33 285,-33 Z"/>
  </g>
  <g id="bullet-char-template-9679" transform="scale(0.00048828125,-0.00048828125)">
   <path d="M 813,0 C 632,0 489,54 383,161 276,268 223,411 223,592 223,773 276,916 383,1023 489,1130 632,1184 813,1184 992,1184 1136,1130 1245,1023 1353,916 1407,772 1407,592 1407,412 1353,268 1245,161 1136,54 992,0 813,0 Z"/>
  </g>
  <g id="bullet-char-template-8226" transform="scale(0.00048828125,-0.00048828125)">
   <path d="M 346,457 C 273,457 209,483 155,535 101,586 74,649 74,723 74,796 101,859 155,911 209,963 273,989 346,989 419,989 480,963 531,910 582,859 608,796 608,723 608,648 583,586 532,535 482,483 420,457 346,457 Z"/>
  </g>
  <g id="bullet-char-template-8211" transform="scale(0.00048828125,-0.00048828125)">
   <path d="M -4,459 L 1135,459 1135,606 -4,606 -4,459 Z"/>
  </g>
  <g id="bullet-char-template-61548" transform="scale(0.00048828125,-0.00048828125)">
   <path d="M 173,740 C 173,903 231,1043 346,1159 462,1274 601,1332 765,1332 928,1332 1067,1274 1183,1159 1299,1043 1357,903 1357,740 1357,577 1299,437 1183,322 1067,206 928,148 765,148 601,148 462,206 346,322 231,437 173,577 173,740 Z"/>
  </g>
 </defs>
 <g>
  <g id="id2" class="Master_Slide">
   <g id="bg-id2" class="Background"/>
   <g id="bo-id2" class="BackgroundObjects"/>
  </g>
 </g>
 <g class="SlideGroup">
  <g>
   <g id="container-id1">
    <g id="id1" class="Slide" clip-path="url(#presentation_clip_path)">
     <g class="Page">
      <g class="com.sun.star.drawing.CustomShape">
       <g id="id3">
        <rect class="BoundingBox" stroke="none" fill="none" x="1878" y="8544" width="23866" height="4818"/>
        <path fill="rgb(255,255,255)" stroke="none" d="M 4356,9573 L 4202,9579 4128,9587 4056,9598 3987,9613 3920,9629 3856,9650 3794,9673 3734,9700 3677,9730 3622,9763 3570,9799 3520,9838 3471,9880 3426,9926 3382,9974 3303,10080 3235,10194 3177,10318 3130,10451 3094,10593 3067,10745 3051,10906 3046,11076 3051,11248 3066,11409 3089,11560 3124,11701 3168,11833 3221,11954 3284,12065 3320,12118 3357,12167 3398,12214 3440,12258 3487,12299 3536,12336 3588,12372 3643,12403 3702,12432 3762,12457 3826,12480 3893,12499 3963,12516 4036,12530 4111,12541 4190,12548 4356,12554 4516,12550 4676,12539 4837,12520 4996,12492 5158,12458 5328,12418 5504,12372 5687,12319 5687,13105 5516,13159 5346,13207 5175,13246 5006,13278 4834,13303 4650,13320 4457,13330 4254,13334 4057,13329 3868,13316 3689,13294 3518,13263 3357,13224 3204,13175 3060,13118 2925,13052 2799,12978 2680,12897 2571,12809 2471,12713 2378,12611 2295,12501 2220,12385 2153,12261 2095,12131 2044,11995 2001,11854 1967,11708 1939,11556 1920,11399 1909,11237 1905,11070 1909,10905 1922,10745 1945,10590 1976,10441 2016,10295 2065,10155 2123,10019 2190,9888 2265,9763 2348,9645 2440,9534 2540,9430 2648,9334 2764,9243 2887,9160 3020,9084 3160,9016 3308,8957 3463,8907 3627,8866 3798,8834 3976,8812 4162,8798 4356,8793 4453,8794 4549,8798 4744,8814 4939,8841 5135,8877 5328,8923 5518,8975 5704,9035 5885,9102 5526,9863 5379,9806 5232,9753 5086,9705 4938,9659 4864,9639 4790,9621 4717,9606 4644,9594 4571,9585 4499,9578 4428,9575 4356,9573 Z M 7802,9530 L 7785,10006 7767,10200 7760,10273 7751,10327 7810,10327 7859,10265 7912,10207 7968,10153 8027,10104 8091,10059 8157,10018 8227,9982 8300,9951 8376,9923 8454,9899 8534,9878 8617,9862 8701,9849 8787,9840 8876,9834 8966,9833 9125,9837 9276,9851 9418,9874 9553,9906 9679,9947 9739,9972 9797,9998 9854,10026 9907,10058 9959,10090 10009,10127 10057,10164 10100,10206 10142,10249 10181,10296 10215,10345 10247,10397 10276,10451 10302,10509 10325,10569 10345,10633 10376,10767 10394,10913 10400,11070 10400,13272 9310,13272 9310,11299 9308,11211 9300,11128 9287,11051 9269,10979 9248,10913 9219,10853 9187,10800 9150,10751 9106,10708 9059,10671 9006,10640 8948,10614 8885,10594 8818,10580 8745,10571 8667,10568 8549,10573 8494,10578 8441,10586 8390,10596 8342,10609 8296,10624 8252,10641 8210,10659 8172,10681 8136,10705 8102,10730 8070,10758 8041,10788 8014,10821 7990,10856 7946,10932 7907,11015 7875,11107 7849,11206 7828,11314 7814,11429 7805,11551 7802,11683 7802,13272 6712,13272 6712,8571 7802,8571 7802,9530 Z M 13752,9833 L 13942,9839 13994,9842 14041,9847 14082,9852 14118,9857 14037,10723 14008,10717 13974,10712 13933,10707 13888,10702 13840,10698 13795,10695 13753,10693 13716,10692 13647,10693 13578,10698 13511,10704 13443,10714 13376,10725 13311,10740 13246,10757 13182,10776 13119,10798 13060,10824 13002,10853 12949,10885 12899,10920 12853,10959 12808,11000 12767,11045 12731,11094 12698,11147 12671,11204 12649,11264 12632,11331 12619,11400 12612,11474 12610,11552 12610,13272 11520,13272 11520,9894 12346,9894 12508,10464 12559,10464 12605,10399 12655,10339 12710,10279 12768,10222 12830,10168 12896,10115 12967,10066 13042,10018 13120,9974 13201,9937 13286,9905 13373,9879 13464,9859 13556,9844 13653,9835 13752,9833 Z M 18509,9894 L 18509,13272 17675,13272 17528,12839 17470,12839 17420,12901 17365,12960 17307,13014 17244,13063 17176,13107 17104,13148 17028,13184 16947,13216 16862,13243 16778,13267 16692,13288 16603,13304 16515,13317 16424,13327 16333,13332 16241,13334 16084,13329 15935,13315 15793,13292 15661,13260 15536,13218 15477,13195 15419,13168 15363,13139 15310,13108 15259,13075 15209,13040 15162,13002 15118,12960 15077,12917 15039,12871 15004,12821 14973,12769 14943,12714 14917,12657 14894,12596 14875,12534 14844,12399 14827,12253 14821,12096 14821,9894 15911,9894 15911,11867 15913,11954 15920,12036 15933,12112 15949,12183 15971,12248 15997,12308 16028,12363 16046,12388 16065,12412 16085,12435 16106,12455 16129,12476 16153,12493 16178,12510 16205,12526 16235,12539 16264,12551 16296,12563 16328,12571 16363,12579 16398,12586 16474,12595 16555,12598 16675,12593 16730,12588 16784,12580 16835,12570 16884,12557 16930,12542 16974,12526 17016,12507 17054,12485 17091,12461 17124,12436 17156,12408 17184,12378 17211,12345 17235,12310 17278,12234 17315,12151 17347,12059 17373,11960 17392,11852 17407,11737 17415,11615 17419,11484 17419,9894 18509,9894 Z M 24341,9833 L 24506,9837 24661,9851 24805,9874 24939,9906 25002,9926 25063,9948 25120,9972 25175,9998 25228,10027 25278,10058 25325,10091 25370,10127 25411,10164 25451,10206 25487,10249 25522,10296 25553,10345 25581,10397 25607,10452 25630,10509 25668,10633 25695,10767 25711,10913 25716,11070 25716,13272 24626,13272 24626,11299 24617,11128 24605,11051 24589,10979 24568,10913 24542,10853 24512,10800 24476,10751 24437,10708 24392,10671 24343,10640 24289,10614 24231,10594 24167,10580 24099,10571 24026,10568 23922,10573 23873,10577 23827,10585 23781,10594 23738,10605 23696,10619 23657,10633 23619,10651 23584,10670 23551,10692 23519,10715 23489,10741 23462,10768 23436,10797 23412,10829 23369,10897 23332,10972 23300,11056 23275,11146 23255,11242 23240,11347 23232,11458 23229,11577 23229,13272 22139,13272 22139,11299 22129,11128 22118,11051 22101,10979 22080,10913 22054,10853 22024,10800 21989,10751 21949,10708 21904,10671 21854,10640 21801,10614 21742,10594 21678,10580 21611,10571 21538,10568 21483,10569 21428,10573 21377,10578 21329,10586 21283,10596 21238,10609 21195,10624 21156,10641 21117,10659 21082,10681 21048,10705 21017,10730 20988,10758 20961,10788 20936,10821 20913,10856 20872,10932 20837,11015 20808,11107 20784,11206 20764,11314 20751,11429 20743,11551 20740,11683 20740,13272 19650,13272 19650,9894 20484,9894 20631,10327 20689,10327 20737,10265 20789,10207 20845,10153 20907,10104 20971,10059 21040,10018 21114,9982 21191,9951 21271,9923 21351,9899 21433,9878 21515,9862 21598,9849 21683,9840 21768,9834 21853,9833 21961,9834 22065,9840 22164,9849 22259,9862 22350,9880 22437,9900 22520,9925 22599,9953 22674,9986 22744,10022 22809,10062 22870,10107 22926,10156 22978,10208 23025,10266 23067,10327 23163,10327 23211,10265 23263,10207 23320,10153 23382,10104 23448,10059 23517,10018 23592,9982 23671,9951 23754,9923 23836,9899 23918,9878 24001,9862 24086,9849 24170,9840 24256,9834 24341,9833 Z"/>
        <path fill="none" stroke="rgb(128,128,128)" stroke-width="53" stroke-linejoin="miter" d="M 4356,9573 L 4202,9579 4128,9587 4056,9598 3987,9613 3920,9629 3856,9650 3794,9673 3734,9700 3677,9730 3622,9763 3570,9799 3520,9838 3471,9880 3426,9926 3382,9974 3303,10080 3235,10194 3177,10318 3130,10451 3094,10593 3067,10745 3051,10906 3046,11076 3051,11248 3066,11409 3089,11560 3124,11701 3168,11833 3221,11954 3284,12065 3320,12118 3357,12167 3398,12214 3440,12258 3487,12299 3536,12336 3588,12372 3643,12403 3702,12432 3762,12457 3826,12480 3893,12499 3963,12516 4036,12530 4111,12541 4190,12548 4356,12554 4516,12550 4676,12539 4837,12520 4996,12492 5158,12458 5328,12418 5504,12372 5687,12319 5687,13105 5516,13159 5346,13207 5175,13246 5006,13278 4834,13303 4650,13320 4457,13330 4254,13334 4057,13329 3868,13316 3689,13294 3518,13263 3357,13224 3204,13175 3060,13118 2925,13052 2799,12978 2680,12897 2571,12809 2471,12713 2378,12611 2295,12501 2220,12385 2153,12261 2095,12131 2044,11995 2001,11854 1967,11708 1939,11556 1920,11399 1909,11237 1905,11070 1909,10905 1922,10745 1945,10590 1976,10441 2016,10295 2065,10155 2123,10019 2190,9888 2265,9763 2348,9645 2440,9534 2540,9430 2648,9334 2764,9243 2887,9160 3020,9084 3160,9016 3308,8957 3463,8907 3627,8866 3798,8834 3976,8812 4162,8798 4356,8793 4453,8794 4549,8798 4744,8814 4939,8841 5135,8877 5328,8923 5518,8975 5704,9035 5885,9102 5526,9863 5379,9806 5232,9753 5086,9705 4938,9659 4864,9639 4790,9621 4717,9606 4644,9594 4571,9585 4499,9578 4428,9575 4356,9573 Z"/>
        <path fill="none" stroke="rgb(128,128,128)" stroke-width="53" stroke-linejoin="miter" d="M 7802,9530 L 7785,10006 7767,10200 7760,10273 7751,10327 7810,10327 7859,10265 7912,10207 7968,10153 8027,10104 8091,10059 8157,10018 8227,9982 8300,9951 8376,9923 8454,9899 8534,9878 8617,9862 8701,9849 8787,9840 8876,9834 8966,9833 9125,9837 9276,9851 9418,9874 9553,9906 9679,9947 9739,9972 9797,9998 9854,10026 9907,10058 9959,10090 10009,10127 10057,10164 10100,10206 10142,10249 10181,10296 10215,10345 10247,10397 10276,10451 10302,10509 10325,10569 10345,10633 10376,10767 10394,10913 10400,11070 10400,13272 9310,13272 9310,11299 9308,11211 9300,11128 9287,11051 9269,10979 9248,10913 9219,10853 9187,10800 9150,10751 9106,10708 9059,10671 9006,10640 8948,10614 8885,10594 8818,10580 8745,10571 8667,10568 8549,10573 8494,10578 8441,10586 8390,10596 8342,10609 8296,10624 8252,10641 8210,10659 8172,10681 8136,10705 8102,10730 8070,10758 8041,10788 8014,10821 7990,10856 7946,10932 7907,11015 7875,11107 7849,11206 7828,11314 7814,11429 7805,11551 7802,11683 7802,13272 6712,13272 6712,8571 7802,8571 7802,9530 Z"/>
        <path fill="none" stroke="rgb(128,128,128)" stroke-width="53" stroke-linejoin="miter" d="M 13752,9833 L 13942,9839 13994,9842 14041,9847 14082,9852 14118,9857 14037,10723 14008,10717 13974,10712 13933,10707 13888,10702 13840,10698 13795,10695 13753,10693 13716,10692 13647,10693 13578,10698 13511,10704 13443,10714 13376,10725 13311,10740 13246,10757 13182,10776 13119,10798 13060,10824 13002,10853 12949,10885 12899,10920 12853,10959 12808,11000 12767,11045 12731,11094 12698,11147 12671,11204 12649,11264 12632,11331 12619,11400 12612,11474 12610,11552 12610,13272 11520,13272 11520,9894 12346,9894 12508,10464 12559,10464 12605,10399 12655,10339 12710,10279 12768,10222 12830,10168 12896,10115 12967,10066 13042,10018 13120,9974 13201,9937 13286,9905 13373,9879 13464,9859 13556,9844 13653,9835 13752,9833 Z"/>
        <path fill="none" stroke="rgb(128,128,128)" stroke-width="53" stroke-linejoin="miter" d="M 18509,9894 L 18509,13272 17675,13272 17528,12839 17470,12839 17420,12901 17365,12960 17307,13014 17244,13063 17176,13107 17104,13148 17028,13184 16947,13216 16862,13243 16778,13267 16692,13288 16603,13304 16515,13317 16424,13327 16333,13332 16241,13334 16084,13329 15935,13315 15793,13292 15661,13260 15536,13218 15477,13195 15419,13168 15363,13139 15310,13108 15259,13075 15209,13040 15162,13002 15118,12960 15077,12917 15039,12871 15004,12821 14973,12769 14943,12714 14917,12657 14894,12596 14875,12534 14844,12399 14827,12253 14821,12096 14821,9894 15911,9894 15911,11867 15913,11954 15920,12036 15933,12112 15949,12183 15971,12248 15997,12308 16028,12363 16046,12388 16065,12412 16085,12435 16106,12455 16129,12476 16153,12493 16178,12510 16205,12526 16235,12539 16264,12551 16296,12563 16328,12571 16363,12579 16398,12586 16474,12595 16555,12598 16675,12593 16730,12588 16784,12580 16835,12570 16884,12557 16930,12542 16974,12526 17016,12507 17054,12485 17091,12461 17124,12436 17156,12408 17184,12378 17211,12345 17235,12310 17278,12234 17315,12151 17347,12059 17373,11960 17392,11852 17407,11737 17415,11615 17419,11484 17419,9894 18509,9894 Z"/>
        <path fill="none" stroke="rgb(128,128,128)" stroke-width="53" stroke-linejoin="miter" d="M 24341,9833 L 24506,9837 24661,9851 24805,9874 24939,9906 25002,9926 25063,9948 25120,9972 25175,9998 25228,10027 25278,10058 25325,10091 25370,10127 25411,10164 25451,10206 25487,10249 25522,10296 25553,10345 25581,10397 25607,10452 25630,10509 25668,10633 25695,10767 25711,10913 25716,11070 25716,13272 24626,13272 24626,11299 24617,11128 24605,11051 24589,10979 24568,10913 24542,10853 24512,10800 24476,10751 24437,10708 24392,10671 24343,10640 24289,10614 24231,10594 24167,10580 24099,10571 24026,10568 23922,10573 23873,10577 23827,10585 23781,10594 23738,10605 23696,10619 23657,10633 23619,10651 23584,10670 23551,10692 23519,10715 23489,10741 23462,10768 23436,10797 23412,10829 23369,10897 23332,10972 23300,11056 23275,11146 23255,11242 23240,11347 23232,11458 23229,11577 23229,13272 22139,13272 22139,11299 22129,11128 22118,11051 22101,10979 22080,10913 22054,10853 22024,10800 21989,10751 21949,10708 21904,10671 21854,10640 21801,10614 21742,10594 21678,10580 21611,10571 21538,10568 21483,10569 21428,10573 21377,10578 21329,10586 21283,10596 21238,10609 21195,10624 21156,10641 21117,10659 21082,10681 21048,10705 21017,10730 20988,10758 20961,10788 20936,10821 20913,10856 20872,10932 20837,11015 20808,11107 20784,11206 20764,11314 20751,11429 20743,11551 20740,11683 20740,13272 19650,13272 19650,9894 20484,9894 20631,10327 20689,10327 20737,10265 20789,10207 20845,10153 20907,10104 20971,10059 21040,10018 21114,9982 21191,9951 21271,9923 21351,9899 21433,9878 21515,9862 21598,9849 21683,9840 21768,9834 21853,9833 21961,9834 22065,9840 22164,9849 22259,9862 22350,9880 22437,9900 22520,9925 22599,9953 22674,9986 22744,10022 22809,10062 22870,10107 22926,10156 22978,10208 23025,10266 23067,10327 23163,10327 23211,10265 23263,10207 23320,10153 23382,10104 23448,10059 23517,10018 23592,9982 23671,9951 23754,9923 23836,9899 23918,9878 24001,9862 24086,9849 24170,9840 24256,9834 24341,9833 Z"/>
       </g>
      </g>
     </g>
    </g>
   </g>
  </g>
 </g>
</svg>